HIERARCHY
ROOT root
{
	OFFSET 0.000000 0.000000 0.000000
	CHANNELS 6 Xposition Yposition Zposition Zrotation Yrotation Xrotation
	JOINT lhip
	{
		OFFSET 0.058581 -0.082280 -0.017664
		CHANNELS 3 Zrotation Yrotation Xrotation
		JOINT lknee
		{
			OFFSET 0.043451 -0.386469 0.008037
			CHANNELS 3 Zrotation Yrotation Xrotation
			JOINT lankle
			{
				OFFSET -0.014790 -0.426874 -0.037428
				CHANNELS 3 Zrotation Yrotation Xrotation
				JOINT ltoe
				{
					OFFSET 0.041054 -0.060286 0.122042
					CHANNELS 3 Zrotation Yrotation Xrotation
					End Site
					{
						OFFSET 0.000000 0.000000 0.000000
					}
				}
			}
		}
	}
	JOINT rhip
	{
		OFFSET -0.060310 -0.090513 -0.013543
		CHANNELS 3 Zrotation Yrotation Xrotation
		JOINT rknee
		{
			OFFSET -0.043257 -0.383688 -0.004843
			CHANNELS 3 Zrotation Yrotation Xrotation
			JOINT rankle
			{
				OFFSET 0.019056 -0.420046 -0.034562
				CHANNELS 3 Zrotation Yrotation Xrotation
				JOINT rtoe
				{
					OFFSET -0.034840 -0.062106 0.130323
					CHANNELS 3 Zrotation Yrotation Xrotation
					End Site
					{
						OFFSET 0.000000 0.000000 0.000000
					}
				}
			}
		}
	}
	JOINT lowerback
	{
		OFFSET 0.004439 0.124404 -0.038385
		CHANNELS 3 Zrotation Yrotation Xrotation
		JOINT upperback
		{
			OFFSET 0.004488 0.137956 0.026820
			CHANNELS 3 Zrotation Yrotation Xrotation
			JOINT chest
			{
				OFFSET -0.002265 0.056032 0.002855
				CHANNELS 3 Zrotation Yrotation Xrotation
				JOINT lowerneck
				{
					OFFSET -0.013390 0.211636 -0.033468
					CHANNELS 3 Zrotation Yrotation Xrotation
					JOINT upperneck
					{
						OFFSET 0.010113 0.088937 0.050410
						CHANNELS 3 Zrotation Yrotation Xrotation
						End Site
						{
							OFFSET 0.000000 0.000000 0.000000
						}
					}
				}
				JOINT lclavicle
				{
					OFFSET 0.071702 0.114000 -0.018898
					CHANNELS 3 Zrotation Yrotation Xrotation
					JOINT lshoulder
					{
						OFFSET 0.122921 0.045205 -0.019046
						CHANNELS 3 Zrotation Yrotation Xrotation
						JOINT lelbow
						{
							OFFSET 0.255332 -0.015649 -0.022946
							CHANNELS 3 Zrotation Yrotation Xrotation
							JOINT lwrist
							{
								OFFSET 0.265709 0.012698 -0.007375
								CHANNELS 3 Zrotation Yrotation Xrotation
								End Site
								{
									OFFSET 0.000000 0.000000 0.000000
								}
							}
						}
					}
				}
				JOINT rclavicle
				{
					OFFSET -0.082954 0.112472 -0.023707
					CHANNELS 3 Zrotation Yrotation Xrotation
					JOINT rshoulder
					{
						OFFSET -0.113228 0.046853 -0.008472
						CHANNELS 3 Zrotation Yrotation Xrotation
						JOINT relbow
						{
							OFFSET -0.260127 -0.014369 -0.031269
							CHANNELS 3 Zrotation Yrotation Xrotation
							JOINT rwrist
							{
								OFFSET -0.269108 0.006794 -0.006027
								CHANNELS 3 Zrotation Yrotation Xrotation
								End Site
								{
									OFFSET 0.000000 0.000000 0.000000
								}
							}
						}
					}
				}
			}
		}
	}
}
MOTION
Frames: 8
Frame Time: 0.033333
-1.854573 0.312900 1.022592 91.977412 -0.599213 85.943519 -4.683561 -0.781722 5.168404 -4.192320 -14.649840 4.823509 6.376835 8.147415 -10.757077 0.000000 -0.000000 0.000000 -2.987661 -0.612822 -11.614688 2.364962 -4.807184 35.681544 6.502706 -7.729898 -16.710631 0.000000 -0.000000 0.000000 -6.620299 -0.755503 14.041485 0.394892 -4.328623 -0.999413 -1.259770 -1.190065 3.815239 12.489949 -5.428241 -9.135364 4.722342 -16.366406 1.687492 -24.219632 6.309828 -0.778537 -52.026997 -8.507790 8.328038 8.158622 -28.496929 3.005518 -5.282905 -2.086175 -5.946041 31.833075 -0.507497 -2.986344 57.211137 6.140191 8.526903 -21.490913 11.621405 -18.972941 6.648697 -0.891632 -8.062329 
-1.854145 0.311160 1.022814 91.434441 -0.593128 86.023688 -4.478219 -0.613343 5.315815 -4.159594 -14.269058 4.422686 6.000895 8.376139 -11.049346 0.000000 -0.000000 0.000000 -2.691289 -0.826310 -10.741697 1.942003 -4.022250 33.627283 6.179822 -7.217903 -15.532576 0.000000 -0.000000 0.000000 -6.465987 -0.533371 13.795246 0.329229 -4.116388 -1.130515 -1.142949 -1.106507 3.896798 11.862157 -5.243868 -9.142718 4.472776 -15.928831 1.380423 -24.368816 6.442101 -0.968630 -51.984359 -8.341833 8.002782 8.186732 -27.526565 2.700099 -5.014860 -1.911727 -5.845730 31.784392 -0.793054 -3.158612 57.436591 5.964092 8.639022 -21.160804 11.548045 -18.782783 6.417073 -0.880755 -8.622183 
-1.854001 0.309067 1.023590 90.805780 -0.483145 86.250937 -4.216896 -0.486054 5.235899 -4.060713 -13.967033 4.203873 5.639792 8.386476 -11.265325 0.000000 -0.000000 0.000000 -2.126964 -0.850224 -9.567770 1.943063 -3.528518 31.206914 6.092995 -6.595125 -15.484882 0.000000 -0.000000 0.000000 -6.164300 -0.538965 13.338576 0.359871 -4.041072 -1.094555 -1.075564 -0.892967 3.704204 11.199607 -4.949972 -8.900653 4.089993 -15.518126 1.288268 -24.554227 6.461532 -0.938098 -52.032164 -8.001045 7.758621 8.537036 -26.441570 2.195896 -4.978987 -1.812577 -5.838026 31.874832 -0.778415 -2.864271 57.522377 5.887553 8.584355 -21.089967 11.594994 -18.783948 6.419424 -0.824529 -9.164793 
-1.853908 0.305813 1.025337 90.001623 -0.267801 86.725381 -3.878668 -0.321705 4.850641 -3.819474 -13.409535 4.022720 5.407347 8.376466 -11.181377 0.000000 -0.000000 0.000000 -1.293643 -1.431163 -7.977135 1.736611 -3.358377 27.227658 5.894887 -6.385977 -15.436040 0.000000 -0.000000 0.000000 -5.759300 -0.397120 12.620869 0.500343 -3.972318 -1.320523 -0.819786 -0.775918 3.499699 10.443804 -4.603104 -8.514159 3.579530 -14.871005 1.502967 -24.846134 6.855852 -1.168064 -52.161284 -7.681103 7.536161 8.566242 -25.351339 2.073731 -4.892998 -1.573681 -5.573921 31.940453 -1.197774 -2.880973 57.522497 5.811313 8.483667 -20.849043 11.262737 -18.698953 6.273136 -0.708954 -9.366111 
-1.854102 0.303428 1.026571 89.203691 -0.190216 86.951614 -3.746430 -0.357006 4.824891 -3.624470 -13.022359 3.656409 5.430134 8.427124 -11.027032 0.000000 -0.000000 0.000000 -0.878451 -1.392031 -7.567696 1.636850 -2.516104 25.922514 6.099271 -6.012983 -14.765942 0.000000 -0.000000 0.000000 -5.653525 -0.364171 12.105442 0.645942 -3.827349 -1.252954 -0.724216 -0.632983 3.498445 10.226800 -4.274604 -8.697370 3.113619 -14.560912 1.909830 -25.032802 7.154758 -1.335616 -52.197786 -7.648882 7.549878 8.645429 -24.760560 2.060888 -4.947698 -2.029544 -5.495176 32.114102 -1.412750 -2.933602 57.491949 6.021504 8.713879 -20.848578 10.878791 -18.656224 6.189590 -0.579581 -9.462742 
-1.855011 0.301349 1.028587 88.573368 0.049104 87.178350 -3.584133 -0.394307 4.540681 -3.329178 -12.694492 3.680719 5.436446 8.764951 -11.023879 0.000000 -0.000000 0.000000 -0.600882 -1.079720 -7.410358 1.952622 -1.831251 24.853941 6.408033 -5.625573 -14.000882 0.000000 -0.000000 0.000000 -5.202114 -0.537985 11.735493 0.838865 -3.659430 -1.256595 -0.611850 -0.634413 3.378704 9.823488 -3.878561 -8.400007 2.685856 -13.825614 2.094373 -25.308912 7.412686 -1.394291 -52.278128 -7.494857 7.578631 8.676938 -24.584620 1.892831 -4.973624 -1.742776 -5.320627 32.106050 -1.620760 -3.058274 57.405821 6.165935 8.819245 -20.692090 10.602586 -18.541120 6.049793 -0.630381 -9.178311 
-1.855356 0.299101 1.029939 88.063833 0.187368 87.333009 -3.389015 -0.512095 4.486148 -3.195726 -12.358095 3.475781 5.352836 8.928614 -11.127678 0.000000 -0.000000 0.000000 -0.451231 -0.987520 -7.046484 2.196382 -1.848676 23.745103 6.482769 -5.402185 -13.407340 0.000000 -0.000000 0.000000 -4.771925 -0.794846 11.417991 0.954779 -3.729297 -1.228580 -0.551878 -0.531186 3.320856 9.679534 -3.749922 -8.250570 2.332199 -13.355462 2.161052 -25.362724 7.802469 -1.294197 -52.487335 -7.286454 7.525224 8.837498 -25.253379 1.798704 -4.952469 -1.567243 -5.467020 32.108279 -1.747932 -2.891750 57.507540 6.203340 8.920647 -20.936323 10.796519 -18.225022 5.779062 -0.822952 -8.608895 
-1.856213 0.297015 1.030578 87.985887 0.149262 87.410159 -3.209154 -0.566196 4.330423 -3.277695 -12.071759 3.496324 5.021834 8.690392 -11.312341 0.000000 -0.000000 0.000000 -0.307600 -1.188893 -6.717337 2.145348 -1.755588 22.816679 6.391288 -5.307895 -13.127996 0.000000 -0.000000 0.000000 -4.677710 -0.799620 11.226800 1.136529 -3.880190 -1.117804 -0.318694 -0.772103 3.389547 9.557478 -3.312189 -8.230030 2.110588 -12.780278 2.438814 -25.319049 7.753817 -1.083696 -52.774300 -7.381830 7.575534 8.905828 -25.677207 1.936073 -4.789368 -1.905702 -5.609648 32.056804 -1.975655 -2.902430 57.487199 6.241471 9.115426 -21.015970 11.279561 -17.611293 5.349571 -0.543983 -8.154214 
